<mxfile host="app.diagrams.net" agent="Mozilla/5.0 (Windows NT 10.0; Win64; x64; rv:130.0) Gecko/20100101 Firefox/130.0" version="24.7.14">
  <diagram name="Halaman-1" id="00ovUJ1NheK7mZkcq8uC">
    <mxGraphModel dx="794" dy="432" grid="1" gridSize="10" guides="1" tooltips="1" connect="1" arrows="1" fold="1" page="1" pageScale="1" pageWidth="827" pageHeight="1169" math="0" shadow="0">
      <root>
        <mxCell id="0" />
        <mxCell id="1" parent="0" />
        <mxCell id="pdnsB1Ke9c1y5z3ZJbA7-1" value="&lt;font style=&quot;font-size: 17px;&quot;&gt;Rekam Medis&lt;br&gt;&lt;/font&gt;" style="rounded=0;whiteSpace=wrap;html=1;fontFamily=Garamond;" vertex="1" parent="1">
          <mxGeometry x="80" y="120" width="120" height="40" as="geometry" />
        </mxCell>
        <mxCell id="pdnsB1Ke9c1y5z3ZJbA7-3" value="RESOURCE" style="text;html=1;align=center;verticalAlign=middle;resizable=0;points=[];autosize=1;strokeColor=none;fillColor=none;" vertex="1" parent="1">
          <mxGeometry x="90" y="90" width="90" height="30" as="geometry" />
        </mxCell>
        <mxCell id="pdnsB1Ke9c1y5z3ZJbA7-4" value="&lt;font style=&quot;font-size: 17px;&quot;&gt;Perlengkapan Medis&lt;br&gt;&lt;/font&gt;" style="rounded=0;whiteSpace=wrap;html=1;fontFamily=Garamond;" vertex="1" parent="1">
          <mxGeometry x="80" y="200" width="120" height="40" as="geometry" />
        </mxCell>
        <mxCell id="pdnsB1Ke9c1y5z3ZJbA7-5" value="&lt;font style=&quot;font-size: 17px;&quot;&gt;Layanan Laboraorium&lt;br&gt;&lt;/font&gt;" style="rounded=0;whiteSpace=wrap;html=1;fontFamily=Garamond;" vertex="1" parent="1">
          <mxGeometry x="80" y="280" width="120" height="40" as="geometry" />
        </mxCell>
        <mxCell id="pdnsB1Ke9c1y5z3ZJbA7-6" value="&lt;font style=&quot;font-size: 17px;&quot;&gt;Aset Keuangan&lt;br&gt;&lt;/font&gt;" style="rounded=0;whiteSpace=wrap;html=1;fontFamily=Garamond;" vertex="1" parent="1">
          <mxGeometry x="80" y="360" width="120" height="40" as="geometry" />
        </mxCell>
        <mxCell id="pdnsB1Ke9c1y5z3ZJbA7-7" value="Events" style="text;html=1;align=center;verticalAlign=middle;resizable=0;points=[];autosize=1;strokeColor=none;fillColor=none;" vertex="1" parent="1">
          <mxGeometry x="300" y="88" width="60" height="30" as="geometry" />
        </mxCell>
        <mxCell id="pdnsB1Ke9c1y5z3ZJbA7-8" value="&lt;font style=&quot;font-size: 17px;&quot;&gt;Pendaftaran Pasien&lt;/font&gt;" style="rounded=0;whiteSpace=wrap;html=1;fontFamily=Garamond;" vertex="1" parent="1">
          <mxGeometry x="280" y="120" width="120" height="40" as="geometry" />
        </mxCell>
        <mxCell id="pdnsB1Ke9c1y5z3ZJbA7-9" value="&lt;font style=&quot;font-size: 17px;&quot;&gt;Pemeriksaan Pasien&lt;/font&gt;" style="rounded=0;whiteSpace=wrap;html=1;fontFamily=Garamond;" vertex="1" parent="1">
          <mxGeometry x="280" y="200" width="120" height="40" as="geometry" />
        </mxCell>
        <mxCell id="pdnsB1Ke9c1y5z3ZJbA7-10" value="&lt;font style=&quot;font-size: 17px;&quot;&gt;Resep dan Pegobatan&lt;/font&gt;" style="rounded=0;whiteSpace=wrap;html=1;fontFamily=Garamond;" vertex="1" parent="1">
          <mxGeometry x="280" y="280" width="120" height="40" as="geometry" />
        </mxCell>
        <mxCell id="pdnsB1Ke9c1y5z3ZJbA7-11" value="&lt;font style=&quot;font-size: 17px;&quot;&gt;Pembayaran&lt;/font&gt;" style="rounded=0;whiteSpace=wrap;html=1;fontFamily=Garamond;" vertex="1" parent="1">
          <mxGeometry x="280" y="360" width="120" height="40" as="geometry" />
        </mxCell>
        <mxCell id="pdnsB1Ke9c1y5z3ZJbA7-12" value="Text" style="text;html=1;align=center;verticalAlign=middle;resizable=0;points=[];autosize=1;strokeColor=none;fillColor=none;" vertex="1" parent="1">
          <mxGeometry x="510" y="90" width="50" height="30" as="geometry" />
        </mxCell>
        <mxCell id="pdnsB1Ke9c1y5z3ZJbA7-13" value="&lt;font style=&quot;font-size: 17px;&quot;&gt;Dokter &lt;br&gt;&lt;/font&gt;" style="rounded=0;whiteSpace=wrap;html=1;fontFamily=Garamond;" vertex="1" parent="1">
          <mxGeometry x="480" y="120" width="120" height="40" as="geometry" />
        </mxCell>
        <mxCell id="pdnsB1Ke9c1y5z3ZJbA7-14" value="&lt;font style=&quot;font-size: 17px;&quot;&gt;Pasien&lt;/font&gt;" style="rounded=0;whiteSpace=wrap;html=1;fontFamily=Garamond;" vertex="1" parent="1">
          <mxGeometry x="480" y="200" width="120" height="40" as="geometry" />
        </mxCell>
        <mxCell id="pdnsB1Ke9c1y5z3ZJbA7-15" value="&lt;font style=&quot;font-size: 17px;&quot;&gt;Pengelola&lt;/font&gt;" style="rounded=0;whiteSpace=wrap;html=1;fontFamily=Garamond;" vertex="1" parent="1">
          <mxGeometry x="480" y="440" width="120" height="40" as="geometry" />
        </mxCell>
        <mxCell id="pdnsB1Ke9c1y5z3ZJbA7-16" value="&lt;font style=&quot;font-size: 17px;&quot;&gt;Perawat&lt;/font&gt;" style="rounded=0;whiteSpace=wrap;html=1;fontFamily=Garamond;" vertex="1" parent="1">
          <mxGeometry x="480" y="360" width="120" height="40" as="geometry" />
        </mxCell>
        <mxCell id="pdnsB1Ke9c1y5z3ZJbA7-17" value="&lt;font style=&quot;font-size: 17px;&quot;&gt;Staf&lt;/font&gt;" style="rounded=0;whiteSpace=wrap;html=1;fontFamily=Garamond;" vertex="1" parent="1">
          <mxGeometry x="480" y="280" width="120" height="40" as="geometry" />
        </mxCell>
        <mxCell id="pdnsB1Ke9c1y5z3ZJbA7-18" value="&lt;font style=&quot;font-size: 17px;&quot;&gt;Manajemen Rekam Medis&lt;br&gt;&lt;/font&gt;" style="rounded=0;whiteSpace=wrap;html=1;fontFamily=Garamond;" vertex="1" parent="1">
          <mxGeometry x="280" y="440" width="120" height="40" as="geometry" />
        </mxCell>
        <mxCell id="pdnsB1Ke9c1y5z3ZJbA7-19" value="&lt;font style=&quot;font-size: 17px;&quot;&gt;Pelaporan Keuangan&lt;br&gt;&lt;/font&gt;" style="rounded=0;whiteSpace=wrap;html=1;fontFamily=Garamond;" vertex="1" parent="1">
          <mxGeometry x="280" y="520" width="120" height="40" as="geometry" />
        </mxCell>
      </root>
    </mxGraphModel>
  </diagram>
</mxfile>
